<?xml version="1.0" encoding="UTF-8" standalone="no"?>
<!DOCTYPE svg PUBLIC "-//W3C//DTD SVG 1.1//EN"
 "http://www.w3.org/Graphics/SVG/1.1/DTD/svg11.dtd">
<!-- Generated by graphviz version 2.26.3 (20100126.1600)
 -->
<!-- Title: G Pages: 1 -->
<svg width="286pt" height="98pt"
 viewBox="0.00 0.00 286.00 98.00" xmlns="http://www.w3.org/2000/svg" xmlns:xlink="http://www.w3.org/1999/xlink">
<g id="graph1" class="graph" transform="scale(1 1) rotate(0) translate(4 94)">
<title>G</title>
<polygon fill="white" stroke="white" points="-4,5 -4,-94 283,-94 283,5 -4,5"/>
<g id="graph2" class="cluster"><title>cluster_Global</title>
<polyline fill="none" stroke="gray" points="194,-8 258,-8 "/>
<path fill="none" stroke="gray" d="M258,-8C264,-8 270,-14 270,-20"/>
<polyline fill="none" stroke="gray" points="270,-20 270,-70 "/>
<path fill="none" stroke="gray" d="M270,-70C270,-76 264,-82 258,-82"/>
<polyline fill="none" stroke="gray" points="258,-82 194,-82 "/>
<path fill="none" stroke="gray" d="M194,-82C188,-82 182,-76 182,-70"/>
<polyline fill="none" stroke="gray" points="182,-70 182,-20 "/>
<path fill="none" stroke="gray" d="M182,-20C182,-14 188,-8 194,-8"/>
<text text-anchor="middle" x="226" y="-68.1" font-family="Times Roman,serif" font-size="11.00" fill="gray">Global</text>
</g>
<!-- \\Comment -->
<g id="node2" class="node"><title>\\Comment</title>
<polygon fill="none" stroke="black" points="261,-52 191,-52 191,-16 261,-16 261,-52"/>
<text text-anchor="middle" x="226" y="-31.1" font-family="Times Roman,serif" font-size="11.00">Comment</text>
</g>
<!-- \\Eloquent -->
<g id="node4" class="node"><title>\\Eloquent</title>
<ellipse fill="none" stroke="black" cx="59" cy="-34" rx="58.1882" ry="18.3848"/>
<text text-anchor="middle" x="59" y="-30.4" font-family="Times Roman,serif" font-size="14.00" fill="gray">\Eloquent</text>
</g>
<!-- \\Comment&#45;&gt;\\Eloquent -->
<g id="edge3" class="edge"><title>\\Comment&#45;&gt;\\Eloquent</title>
<path fill="none" stroke="black" d="M190.174,-34C171.972,-34 149.225,-34 127.808,-34"/>
<polygon fill="none" stroke="black" points="127.757,-30.5001 117.757,-34 127.757,-37.5001 127.757,-30.5001"/>
</g>
</g>
</svg>
