<?xml version="1.0" encoding="UTF-8" standalone="no"?>
<!DOCTYPE svg PUBLIC "-//W3C//DTD SVG 1.1//EN"
 "http://www.w3.org/Graphics/SVG/1.1/DTD/svg11.dtd">
<!-- Generated by graphviz version 2.26.3 (20100126.1600)
 -->
<!-- Title: G Pages: 1 -->
<svg width="676pt" height="541pt"
 viewBox="0.00 0.00 676.00 541.00" xmlns="http://www.w3.org/2000/svg" xmlns:xlink="http://www.w3.org/1999/xlink">
<g id="graph1" class="graph" transform="scale(1 1) rotate(0) translate(4 537)">
<title>G</title>
<polygon fill="white" stroke="white" points="-4,5 -4,-537 673,-537 673,5 -4,5"/>
<g id="graph2" class="cluster"><title>cluster_Global</title>
<polyline fill="none" stroke="gray" points="572,-19 648,-19 "/>
<path fill="none" stroke="gray" d="M648,-19C654,-19 660,-25 660,-31"/>
<polyline fill="none" stroke="gray" points="660,-31 660,-513 "/>
<path fill="none" stroke="gray" d="M660,-513C660,-519 654,-525 648,-525"/>
<polyline fill="none" stroke="gray" points="648,-525 572,-525 "/>
<path fill="none" stroke="gray" d="M572,-525C566,-525 560,-519 560,-513"/>
<polyline fill="none" stroke="gray" points="560,-513 560,-31 "/>
<path fill="none" stroke="gray" d="M560,-31C560,-25 566,-19 572,-19"/>
<text text-anchor="middle" x="610" y="-511.1" font-family="Times Roman,serif" font-size="11.00" fill="gray">Global</text>
</g>
<!-- \\Property -->
<g id="node2" class="node"><title>\\Property</title>
<polygon fill="none" stroke="black" points="641,-495 579,-495 579,-459 641,-459 641,-495"/>
<text text-anchor="middle" x="610" y="-474.1" font-family="Times Roman,serif" font-size="11.00">Property</text>
</g>
<!-- \\Eloquent -->
<g id="node12" class="node"><title>\\Eloquent</title>
<ellipse fill="none" stroke="black" cx="248" cy="-261" rx="58.1882" ry="18.3848"/>
<text text-anchor="middle" x="248" y="-257.4" font-family="Times Roman,serif" font-size="14.00" fill="gray">\Eloquent</text>
</g>
<!-- \\Property&#45;&gt;\\Eloquent -->
<g id="edge3" class="edge"><title>\\Property&#45;&gt;\\Eloquent</title>
<path fill="none" stroke="black" d="M578.396,-460.24C572.263,-456.902 565.908,-453.382 560,-450 458.005,-391.616 339.935,-318.563 282.69,-282.786"/>
<polygon fill="none" stroke="black" points="284.37,-279.709 274.036,-277.373 280.658,-285.644 284.37,-279.709"/>
</g>
<!-- \\Ticket -->
<g id="node3" class="node"><title>\\Ticket</title>
<polygon fill="none" stroke="black" points="637,-441 583,-441 583,-405 637,-405 637,-441"/>
<text text-anchor="middle" x="610" y="-420.1" font-family="Times Roman,serif" font-size="11.00">Ticket</text>
</g>
<!-- \\Ticket&#45;&gt;\\Eloquent -->
<g id="edge5" class="edge"><title>\\Ticket&#45;&gt;\\Eloquent</title>
<path fill="none" stroke="black" d="M582.791,-410.824C520.191,-382.809 365.574,-313.616 290.399,-279.974"/>
<polygon fill="none" stroke="black" points="291.76,-276.749 281.203,-275.859 288.901,-283.138 291.76,-276.749"/>
</g>
<!-- \\Course -->
<g id="node4" class="node"><title>\\Course</title>
<polygon fill="none" stroke="black" points="637,-387 583,-387 583,-351 637,-351 637,-387"/>
<text text-anchor="middle" x="610" y="-366.1" font-family="Times Roman,serif" font-size="11.00">Course</text>
</g>
<!-- \\Course&#45;&gt;\\Eloquent -->
<g id="edge7" class="edge"><title>\\Course&#45;&gt;\\Eloquent</title>
<path fill="none" stroke="black" d="M582.494,-360.794C522.209,-342.808 377.623,-299.672 299.754,-276.44"/>
<polygon fill="none" stroke="black" points="300.724,-273.077 290.141,-273.572 298.723,-279.785 300.724,-273.077"/>
</g>
<!-- \\Comment -->
<g id="node5" class="node"><title>\\Comment</title>
<polygon fill="none" stroke="black" points="645,-333 575,-333 575,-297 645,-297 645,-333"/>
<text text-anchor="middle" x="610" y="-312.1" font-family="Times Roman,serif" font-size="11.00">Comment</text>
</g>
<!-- \\Comment&#45;&gt;\\Eloquent -->
<g id="edge9" class="edge"><title>\\Comment&#45;&gt;\\Eloquent</title>
<path fill="none" stroke="black" d="M574.299,-309.674C513.015,-300.533 387.047,-281.742 310.803,-270.368"/>
<polygon fill="none" stroke="black" points="311.251,-266.897 300.844,-268.883 310.219,-273.82 311.251,-266.897"/>
</g>
<!-- \\Membership -->
<g id="node6" class="node"><title>\\Membership</title>
<polygon fill="none" stroke="black" points="652,-279 568,-279 568,-243 652,-243 652,-279"/>
<text text-anchor="middle" x="610" y="-258.1" font-family="Times Roman,serif" font-size="11.00">Membership</text>
</g>
<!-- \\Membership&#45;&gt;\\Eloquent -->
<g id="edge11" class="edge"><title>\\Membership&#45;&gt;\\Eloquent</title>
<path fill="none" stroke="black" d="M567.766,-261C506.133,-261 390.853,-261 316.851,-261"/>
<polygon fill="none" stroke="black" points="316.693,-257.5 306.693,-261 316.693,-264.5 316.693,-257.5"/>
</g>
<!-- \\WorkLog -->
<g id="node7" class="node"><title>\\WorkLog</title>
<polygon fill="none" stroke="black" points="642,-225 578,-225 578,-189 642,-189 642,-225"/>
<text text-anchor="middle" x="610" y="-204.1" font-family="Times Roman,serif" font-size="11.00">WorkLog</text>
</g>
<!-- \\WorkLog&#45;&gt;\\Eloquent -->
<g id="edge13" class="edge"><title>\\WorkLog&#45;&gt;\\Eloquent</title>
<path fill="none" stroke="black" d="M577.875,-211.792C518.093,-220.71 388.788,-239.998 311.007,-251.601"/>
<polygon fill="none" stroke="black" points="310.227,-248.179 300.853,-253.116 311.26,-255.102 310.227,-248.179"/>
</g>
<!-- \\Project -->
<g id="node8" class="node"><title>\\Project</title>
<polygon fill="none" stroke="black" points="637,-171 583,-171 583,-135 637,-135 637,-171"/>
<text text-anchor="middle" x="610" y="-150.1" font-family="Times Roman,serif" font-size="11.00">Project</text>
</g>
<!-- \\Project&#45;&gt;\\Eloquent -->
<g id="edge15" class="edge"><title>\\Project&#45;&gt;\\Eloquent</title>
<path fill="none" stroke="black" d="M582.791,-161.118C522.714,-179.041 377.888,-222.249 299.864,-245.527"/>
<polygon fill="none" stroke="black" points="298.814,-242.188 290.232,-248.4 300.815,-248.895 298.814,-242.188"/>
</g>
<!-- \\Week -->
<g id="node9" class="node"><title>\\Week</title>
<polygon fill="none" stroke="black" points="637,-117 583,-117 583,-81 637,-81 637,-117"/>
<text text-anchor="middle" x="610" y="-96.1" font-family="Times Roman,serif" font-size="11.00">Week</text>
</g>
<!-- \\Week&#45;&gt;\\Eloquent -->
<g id="edge17" class="edge"><title>\\Week&#45;&gt;\\Eloquent</title>
<path fill="none" stroke="black" d="M582.791,-111.176C520.191,-139.191 365.574,-208.384 290.399,-242.026"/>
<polygon fill="none" stroke="black" points="288.901,-238.862 281.203,-246.141 291.76,-245.251 288.901,-238.862"/>
</g>
<!-- \\User -->
<g id="node10" class="node"><title>\\User</title>
<polygon fill="none" stroke="black" points="637,-63 583,-63 583,-27 637,-27 637,-63"/>
<text text-anchor="middle" x="610" y="-42.1" font-family="Times Roman,serif" font-size="11.00">User</text>
</g>
<!-- \\User&#45;&gt;\\Eloquent -->
<g id="edge19" class="edge"><title>\\User&#45;&gt;\\Eloquent</title>
<path fill="none" stroke="black" d="M582.878,-59.3301C575.422,-63.3551 567.363,-67.7852 560,-72 458.005,-130.384 339.935,-203.437 282.69,-239.214"/>
<polygon fill="none" stroke="black" points="280.658,-236.356 274.036,-244.627 284.37,-242.291 280.658,-236.356"/>
</g>
<!-- \\Illuminate\\Auth\\UserInterface -->
<g id="node22" class="node"><title>\\Illuminate\\Auth\\UserInterface</title>
<ellipse fill="none" stroke="black" cx="248" cy="-72" rx="159.806" ry="18.3848"/>
<text text-anchor="middle" x="248" y="-68.4" font-family="Times Roman,serif" font-size="14.00" fill="gray">\Illuminate\Auth\UserInterface</text>
</g>
<!-- \\User&#45;&gt;\\Illuminate\\Auth\\UserInterface -->
<g id="edge21" class="edge"><title>\\User&#45;&gt;\\Illuminate\\Auth\\UserInterface</title>
<path fill="none" stroke="black" stroke-dasharray="1,5" d="M582.791,-47.0294C542.196,-50.0572 462.905,-55.9711 391.677,-61.2838"/>
<polygon fill="none" stroke="black" points="391.397,-57.7949 381.685,-62.029 391.917,-64.7755 391.397,-57.7949"/>
</g>
<!-- \\Illuminate\\Auth\\Reminders\\RemindableInterface -->
<g id="node24" class="node"><title>\\Illuminate\\Auth\\Reminders\\RemindableInterface</title>
<ellipse fill="none" stroke="black" cx="248" cy="-18" rx="246.987" ry="18.3848"/>
<text text-anchor="middle" x="248" y="-14.4" font-family="Times Roman,serif" font-size="14.00" fill="gray">\Illuminate\Auth\Reminders\RemindableInterface</text>
</g>
<!-- \\User&#45;&gt;\\Illuminate\\Auth\\Reminders\\RemindableInterface -->
<g id="edge23" class="edge"><title>\\User&#45;&gt;\\Illuminate\\Auth\\Reminders\\RemindableInterface</title>
<path fill="none" stroke="black" stroke-dasharray="1,5" d="M582.791,-42.9706C549.606,-40.4954 490.561,-36.0916 431.202,-31.6642"/>
<polygon fill="none" stroke="black" points="431.134,-28.1495 420.901,-30.8959 430.613,-35.1301 431.134,-28.1495"/>
</g>
</g>
</svg>
