<?xml version="1.0" encoding="UTF-8" standalone="no"?>
<!DOCTYPE svg PUBLIC "-//W3C//DTD SVG 1.1//EN"
 "http://www.w3.org/Graphics/SVG/1.1/DTD/svg11.dtd">
<!-- Generated by graphviz version 2.26.3 (20100126.1600)
 -->
<!-- Title: G Pages: 1 -->
<svg width="508pt" height="368pt"
 viewBox="0.00 0.00 508.00 368.00" xmlns="http://www.w3.org/2000/svg" xmlns:xlink="http://www.w3.org/1999/xlink">
<g id="graph1" class="graph" transform="scale(1 1) rotate(0) translate(4 364)">
<title>G</title>
<polygon fill="white" stroke="white" points="-4,5 -4,-364 505,-364 505,5 -4,5"/>
<g id="graph2" class="cluster"><title>cluster_Global</title>
<polyline fill="none" stroke="gray" points="204,-8 480,-8 "/>
<path fill="none" stroke="gray" d="M480,-8C486,-8 492,-14 492,-20"/>
<polyline fill="none" stroke="gray" points="492,-20 492,-340 "/>
<path fill="none" stroke="gray" d="M492,-340C492,-346 486,-352 480,-352"/>
<polyline fill="none" stroke="gray" points="480,-352 204,-352 "/>
<path fill="none" stroke="gray" d="M204,-352C198,-352 192,-346 192,-340"/>
<polyline fill="none" stroke="gray" points="192,-340 192,-20 "/>
<path fill="none" stroke="gray" d="M192,-20C192,-14 198,-8 204,-8"/>
<text text-anchor="middle" x="342" y="-338.1" font-family="Times Roman,serif" font-size="11.00" fill="gray">Global</text>
</g>
<!-- \\TicketController -->
<g id="node2" class="node"><title>\\TicketController</title>
<polygon fill="none" stroke="black" points="476,-322 376,-322 376,-286 476,-286 476,-322"/>
<text text-anchor="middle" x="426" y="-301.1" font-family="Times Roman,serif" font-size="11.00">TicketController</text>
</g>
<!-- \\BaseController -->
<g id="node4" class="node"><title>\\BaseController</title>
<polygon fill="none" stroke="black" points="296,-187 200,-187 200,-151 296,-151 296,-187"/>
<text text-anchor="middle" x="248" y="-166.1" font-family="Times Roman,serif" font-size="11.00">BaseController</text>
</g>
<!-- \\TicketController&#45;&gt;\\BaseController -->
<g id="edge3" class="edge"><title>\\TicketController&#45;&gt;\\BaseController</title>
<path fill="none" stroke="black" d="M383.385,-285.958C378.071,-283.191 372.818,-280.186 368,-277 331.504,-252.867 294.897,-218.007 271.884,-194.476"/>
<polygon fill="none" stroke="black" points="274.376,-192.018 264.908,-187.262 269.344,-196.884 274.376,-192.018"/>
</g>
<!-- \\UserController -->
<g id="node3" class="node"><title>\\UserController</title>
<polygon fill="none" stroke="black" points="473,-268 379,-268 379,-232 473,-232 473,-268"/>
<text text-anchor="middle" x="426" y="-247.1" font-family="Times Roman,serif" font-size="11.00">UserController</text>
</g>
<!-- \\UserController&#45;&gt;\\BaseController -->
<g id="edge5" class="edge"><title>\\UserController&#45;&gt;\\BaseController</title>
<path fill="none" stroke="black" d="M386.053,-231.822C359.715,-219.837 325.043,-204.059 297.035,-191.313"/>
<polygon fill="none" stroke="black" points="298.365,-188.074 287.813,-187.117 295.466,-194.445 298.365,-188.074"/>
</g>
<!-- \\Controller -->
<g id="node12" class="node"><title>\\Controller</title>
<ellipse fill="none" stroke="black" cx="64" cy="-169" rx="63.1385" ry="18.3848"/>
<text text-anchor="middle" x="64" y="-165.4" font-family="Times Roman,serif" font-size="14.00" fill="gray">\Controller</text>
</g>
<!-- \\BaseController&#45;&gt;\\Controller -->
<g id="edge7" class="edge"><title>\\BaseController&#45;&gt;\\Controller</title>
<path fill="none" stroke="black" d="M199.656,-169C180.715,-169 158.56,-169 137.711,-169"/>
<polygon fill="none" stroke="black" points="137.6,-165.5 127.6,-169 137.6,-172.5 137.6,-165.5"/>
</g>
<!-- \\ProjectController -->
<g id="node5" class="node"><title>\\ProjectController</title>
<polygon fill="none" stroke="black" points="479,-214 373,-214 373,-178 479,-178 479,-214"/>
<text text-anchor="middle" x="426" y="-193.1" font-family="Times Roman,serif" font-size="11.00">ProjectController</text>
</g>
<!-- \\ProjectController&#45;&gt;\\BaseController -->
<g id="edge9" class="edge"><title>\\ProjectController&#45;&gt;\\BaseController</title>
<path fill="none" stroke="black" d="M372.111,-187.826C351.358,-184.678 327.573,-181.07 306.413,-177.86"/>
<polygon fill="none" stroke="black" points="306.673,-174.36 296.261,-176.32 305.623,-181.281 306.673,-174.36"/>
</g>
<!-- \\CourseController -->
<g id="node6" class="node"><title>\\CourseController</title>
<polygon fill="none" stroke="black" points="479,-160 373,-160 373,-124 479,-124 479,-160"/>
<text text-anchor="middle" x="426" y="-139.1" font-family="Times Roman,serif" font-size="11.00">CourseController</text>
</g>
<!-- \\CourseController&#45;&gt;\\BaseController -->
<g id="edge11" class="edge"><title>\\CourseController&#45;&gt;\\BaseController</title>
<path fill="none" stroke="black" d="M372.111,-150.174C351.358,-153.322 327.573,-156.93 306.413,-160.14"/>
<polygon fill="none" stroke="black" points="305.623,-156.719 296.261,-161.68 306.673,-163.64 305.623,-156.719"/>
</g>
<!-- \\HomeController -->
<g id="node7" class="node"><title>\\HomeController</title>
<polygon fill="none" stroke="black" points="477,-106 375,-106 375,-70 477,-70 477,-106"/>
<text text-anchor="middle" x="426" y="-85.1" font-family="Times Roman,serif" font-size="11.00">HomeController</text>
</g>
<!-- \\HomeController&#45;&gt;\\BaseController -->
<g id="edge13" class="edge"><title>\\HomeController&#45;&gt;\\BaseController</title>
<path fill="none" stroke="black" d="M386.053,-106.178C359.715,-118.163 325.043,-133.941 297.035,-146.687"/>
<polygon fill="none" stroke="black" points="295.466,-143.555 287.813,-150.883 298.365,-149.926 295.466,-143.555"/>
</g>
<!-- \\WorkLogController -->
<g id="node8" class="node"><title>\\WorkLogController</title>
<polygon fill="none" stroke="black" points="484,-52 368,-52 368,-16 484,-16 484,-52"/>
<text text-anchor="middle" x="426" y="-31.1" font-family="Times Roman,serif" font-size="11.00">WorkLogController</text>
</g>
<!-- \\WorkLogController&#45;&gt;\\BaseController -->
<g id="edge15" class="edge"><title>\\WorkLogController&#45;&gt;\\BaseController</title>
<path fill="none" stroke="black" d="M383.385,-52.0417C378.071,-54.8088 372.818,-57.8143 368,-61 331.504,-85.1334 294.897,-119.993 271.884,-143.524"/>
<polygon fill="none" stroke="black" points="269.344,-141.116 264.908,-150.738 274.376,-145.982 269.344,-141.116"/>
</g>
</g>
</svg>
