<?xml version="1.0" encoding="UTF-8" standalone="no"?>
<!DOCTYPE svg PUBLIC "-//W3C//DTD SVG 1.1//EN"
 "http://www.w3.org/Graphics/SVG/1.1/DTD/svg11.dtd">
<!-- Generated by graphviz version 2.26.3 (20100126.1600)
 -->
<!-- Title: G Pages: 1 -->
<svg width="378pt" height="98pt"
 viewBox="0.00 0.00 378.00 98.00" xmlns="http://www.w3.org/2000/svg" xmlns:xlink="http://www.w3.org/1999/xlink">
<g id="graph1" class="graph" transform="scale(1 1) rotate(0) translate(4 94)">
<title>G</title>
<polygon fill="white" stroke="white" points="-4,5 -4,-94 375,-94 375,5 -4,5"/>
<g id="graph2" class="cluster"><title>cluster_Global</title>
<polyline fill="none" stroke="gray" points="250,-8 350,-8 "/>
<path fill="none" stroke="gray" d="M350,-8C356,-8 362,-14 362,-20"/>
<polyline fill="none" stroke="gray" points="362,-20 362,-70 "/>
<path fill="none" stroke="gray" d="M362,-70C362,-76 356,-82 350,-82"/>
<polyline fill="none" stroke="gray" points="350,-82 250,-82 "/>
<path fill="none" stroke="gray" d="M250,-82C244,-82 238,-76 238,-70"/>
<polyline fill="none" stroke="gray" points="238,-70 238,-20 "/>
<path fill="none" stroke="gray" d="M238,-20C238,-14 244,-8 250,-8"/>
<text text-anchor="middle" x="300" y="-68.1" font-family="Times Roman,serif" font-size="11.00" fill="gray">Global</text>
</g>
<!-- \\CourseController -->
<g id="node2" class="node"><title>\\CourseController</title>
<polygon fill="none" stroke="black" points="353,-52 247,-52 247,-16 353,-16 353,-52"/>
<text text-anchor="middle" x="300" y="-31.1" font-family="Times Roman,serif" font-size="11.00">CourseController</text>
</g>
<!-- \\BaseController -->
<g id="node4" class="node"><title>\\BaseController</title>
<ellipse fill="none" stroke="black" cx="87" cy="-34" rx="86.9741" ry="18.3848"/>
<text text-anchor="middle" x="87" y="-30.4" font-family="Times Roman,serif" font-size="14.00" fill="gray">\BaseController</text>
</g>
<!-- \\CourseController&#45;&gt;\\BaseController -->
<g id="edge3" class="edge"><title>\\CourseController&#45;&gt;\\BaseController</title>
<path fill="none" stroke="black" d="M246.251,-34C227.42,-34 205.645,-34 184.36,-34"/>
<polygon fill="none" stroke="black" points="184.298,-30.5001 174.298,-34 184.298,-37.5001 184.298,-30.5001"/>
</g>
</g>
</svg>
