<?xml version="1.0" encoding="UTF-8" standalone="no"?>
<!DOCTYPE svg PUBLIC "-//W3C//DTD SVG 1.1//EN"
 "http://www.w3.org/Graphics/SVG/1.1/DTD/svg11.dtd">
<!-- Generated by graphviz version 2.26.3 (20100126.1600)
 -->
<!-- Title: G Pages: 1 -->
<svg width="646pt" height="152pt"
 viewBox="0.00 0.00 646.00 152.00" xmlns="http://www.w3.org/2000/svg" xmlns:xlink="http://www.w3.org/1999/xlink">
<g id="graph1" class="graph" transform="scale(1 1) rotate(0) translate(4 148)">
<title>G</title>
<polygon fill="white" stroke="white" points="-4,5 -4,-148 643,-148 643,5 -4,5"/>
<g id="graph2" class="cluster"><title>cluster_Global</title>
<polyline fill="none" stroke="gray" points="572,-46 618,-46 "/>
<path fill="none" stroke="gray" d="M618,-46C624,-46 630,-52 630,-58"/>
<polyline fill="none" stroke="gray" points="630,-58 630,-108 "/>
<path fill="none" stroke="gray" d="M630,-108C630,-114 624,-120 618,-120"/>
<polyline fill="none" stroke="gray" points="618,-120 572,-120 "/>
<path fill="none" stroke="gray" d="M572,-120C566,-120 560,-114 560,-108"/>
<polyline fill="none" stroke="gray" points="560,-108 560,-58 "/>
<path fill="none" stroke="gray" d="M560,-58C560,-52 566,-46 572,-46"/>
<text text-anchor="middle" x="595" y="-106.1" font-family="Times Roman,serif" font-size="11.00" fill="gray">Global</text>
</g>
<!-- \\User -->
<g id="node2" class="node"><title>\\User</title>
<polygon fill="none" stroke="black" points="622,-90 568,-90 568,-54 622,-54 622,-90"/>
<text text-anchor="middle" x="595" y="-69.1" font-family="Times Roman,serif" font-size="11.00">User</text>
</g>
<!-- \\Eloquent -->
<g id="node4" class="node"><title>\\Eloquent</title>
<ellipse fill="none" stroke="black" cx="248" cy="-126" rx="58.1882" ry="18.3848"/>
<text text-anchor="middle" x="248" y="-122.4" font-family="Times Roman,serif" font-size="14.00" fill="gray">\Eloquent</text>
</g>
<!-- \\User&#45;&gt;\\Eloquent -->
<g id="edge3" class="edge"><title>\\User&#45;&gt;\\Eloquent</title>
<path fill="none" stroke="black" d="M567.956,-80.618C548.206,-86.6058 520.68,-94.3214 496,-99 435.49,-110.471 365.681,-117.529 315.576,-121.538"/>
<polygon fill="none" stroke="black" points="315.207,-118.056 305.51,-122.323 315.752,-125.034 315.207,-118.056"/>
</g>
<!-- \\Illuminate\\Auth\\UserInterface -->
<g id="node6" class="node"><title>\\Illuminate\\Auth\\UserInterface</title>
<ellipse fill="none" stroke="black" cx="248" cy="-72" rx="159.806" ry="18.3848"/>
<text text-anchor="middle" x="248" y="-68.4" font-family="Times Roman,serif" font-size="14.00" fill="gray">\Illuminate\Auth\UserInterface</text>
</g>
<!-- \\User&#45;&gt;\\Illuminate\\Auth\\UserInterface -->
<g id="edge5" class="edge"><title>\\User&#45;&gt;\\Illuminate\\Auth\\UserInterface</title>
<path fill="none" stroke="black" stroke-dasharray="1,5" d="M567.771,-72C534.771,-72 476.355,-72 418.4,-72"/>
<polygon fill="none" stroke="black" points="418.351,-68.5001 408.351,-72 418.351,-75.5001 418.351,-68.5001"/>
</g>
<!-- \\Illuminate\\Auth\\Reminders\\RemindableInterface -->
<g id="node8" class="node"><title>\\Illuminate\\Auth\\Reminders\\RemindableInterface</title>
<ellipse fill="none" stroke="black" cx="248" cy="-18" rx="246.987" ry="18.3848"/>
<text text-anchor="middle" x="248" y="-14.4" font-family="Times Roman,serif" font-size="14.00" fill="gray">\Illuminate\Auth\Reminders\RemindableInterface</text>
</g>
<!-- \\User&#45;&gt;\\Illuminate\\Auth\\Reminders\\RemindableInterface -->
<g id="edge7" class="edge"><title>\\User&#45;&gt;\\Illuminate\\Auth\\Reminders\\RemindableInterface</title>
<path fill="none" stroke="black" stroke-dasharray="1,5" d="M567.956,-63.382C548.206,-57.3942 520.68,-49.6786 496,-45 471.097,-40.2791 444.619,-36.3056 418.588,-32.9846"/>
<polygon fill="none" stroke="black" points="418.994,-29.5081 408.638,-31.7435 418.128,-36.4543 418.994,-29.5081"/>
</g>
</g>
</svg>
